<?xml version="1.0" encoding="UTF-8"?>
<svg version="1.1" xmlns="http://www.w3.org/2000/svg" width="192" height="192">
<path d="M0 0 C63.36 0 126.72 0 192 0 C192 63.36 192 126.72 192 192 C128.64 192 65.28 192 0 192 C0 128.64 0 65.28 0 0 Z " fill="#1E1C1F" transform="translate(0,0)"/>
<path d="M0 0 C0 3 0 3 -2.01171875 5.0859375 C-2.89472656 5.84132813 -3.77773437 6.59671875 -4.6875 7.375 C-5.6053125 8.17808594 -6.523125 8.98117188 -7.46875 9.80859375 C-8.3040625 10.53175781 -9.139375 11.25492188 -10 12 C-16.30256192 17.71627709 -20.69637427 24.86050222 -25.125 32.0625 C-28.27568877 37.072379 -31.76941615 41.75174052 -35.375 46.4375 C-35.93485596 47.16630371 -36.49471191 47.89510742 -37.0715332 48.64599609 C-39.63351445 51.96902444 -42.21350249 55.27446688 -44.83984375 58.546875 C-45.65582031 59.58328125 -46.47179687 60.6196875 -47.3125 61.6875 C-48.03050781 62.57824219 -48.74851562 63.46898437 -49.48828125 64.38671875 C-51.2825617 67.48845938 -51.30460998 69.47375224 -51 73 C-49.09955705 70.3991712 -47.20519589 67.79397133 -45.3125 65.1875 C-44.43271484 63.97864136 -44.43271484 63.97864136 -43.53515625 62.74536133 C-40.50600498 58.55883803 -37.53906418 54.34884305 -34.69921875 50.03125 C-29.66564337 42.38665104 -24.64159232 35.08933311 -18.1875 28.5625 C-17.68476562 28.04905029 -17.18203125 27.53560059 -16.6640625 27.0065918 C-12.30991845 22.81515972 -7.32233649 19.4719228 -1.25 18.609375 C-0.5075 18.65578125 0.235 18.7021875 1 18.75 C1.763125 18.78609375 2.52625 18.8221875 3.3125 18.859375 C4.1478125 18.92898437 4.1478125 18.92898437 5 19 C3.86337732 23.72135573 3.86337732 23.72135573 2 26 C-0.7092031 26.84047885 -3.32352304 27.14175516 -6.13671875 27.48828125 C-11.54765494 28.45531077 -15.40240246 31.25716632 -19.0625 35.25 C-20.68075473 39.99688055 -19.96718261 44.73411098 -18.00854492 49.32275391 C-16.75792449 51.65628036 -15.43762301 53.92520086 -14.0625 56.1875 C-9.3838903 64.06900516 -5.97881284 70.61166648 -7 80 C-9.16382369 87.25517355 -13.74877891 92.83251927 -20 97 C-25.87765998 99.04847831 -32.92298852 98.83255713 -39 98 C-42.37342317 96.05939601 -45.51721732 94.03451217 -48 91 C-48 90.34 -48 89.68 -48 89 C-47.34 89 -46.68 89 -46 89 C-45.505 87.515 -45.505 87.515 -45 86 C-44.01 86 -43.02 86 -42 86 C-42.33 84.02 -42.66 82.04 -43 80 C-42.34 79.67 -41.68 79.34 -41 79 C-40.4225 80.11375 -39.845 81.2275 -39.25 82.375 C-38.02134625 84.48674863 -37.14713693 85.87913752 -35.25 87.4375 C-30.26435109 88.68391223 -26.52953184 88.89776869 -22.125 86.3125 C-17.93035927 81.74774391 -17.47056035 76.92048624 -17.52734375 70.92578125 C-18.22456501 66.60992401 -20.27031519 63.60654387 -22.78515625 60.09375 C-23.18605469 59.4028125 -23.58695313 58.711875 -24 58 C-23.67 57.01 -23.34 56.02 -23 55 C-21.68 55.33 -20.36 55.66 -19 56 C-19.28875 55.278125 -19.5775 54.55625 -19.875 53.8125 C-21.4375 49.90625 -21.4375 49.90625 -23 46 C-23.66 46 -24.32 46 -25 46 C-25.29003906 46.73605469 -25.58007812 47.47210938 -25.87890625 48.23046875 C-29.82825183 57.98686603 -35.4230153 66.27517241 -41.47216797 74.82080078 C-43.02828885 77.04034935 -44.55001565 79.28049964 -46.06640625 81.52734375 C-59.16975596 100.79415184 -59.16975596 100.79415184 -66.75390625 102.6875 C-67.49511719 102.790625 -68.23632812 102.89375 -69 103 C-68.41992188 102.36384766 -68.41992188 102.36384766 -67.828125 101.71484375 C-60.75100387 93.74432367 -57.53329659 87.04719027 -57.6640625 76.28515625 C-58.69072983 66.24530476 -64.53573345 57.49238052 -71 50 C-71.74121094 49.44441406 -72.48242188 48.88882813 -73.24609375 48.31640625 C-73.82488281 47.88199219 -74.40367188 47.44757813 -75 47 C-75 46.34 -75 45.68 -75 45 C-71.62305242 45.29132118 -70.22028427 45.7921633 -67.71875 48.15234375 C-56 62.86267606 -56 62.86267606 -56 70 C-55.34 70 -54.68 70 -54 70 C-55.07602524 67.45501897 -56.16049792 64.91420689 -57.25 62.375 C-57.55035156 61.66214844 -57.85070312 60.94929688 -58.16015625 60.21484375 C-60.06335083 55.80105207 -62.27385704 51.97960664 -65 48 C-65.73117647 46.47856209 -66.42465276 44.9378638 -67.0625 43.375 C-68.39843572 40.24373565 -69.74467665 37.59362186 -72 35 C-71.67 34.34 -71.34 33.68 -71 33 C-66.55250032 37.9036535 -62.77134167 43.08041247 -59.07250977 48.55541992 C-57.49327309 50.88552594 -55.99599148 53.00400852 -54 55 C-52.35 52.69 -50.7 50.38 -49 48 C-50.65190108 44.08263459 -53.30447081 41.1094217 -56.0625 37.9375 C-57.05402808 36.78049836 -58.04490293 35.62293662 -59.03515625 34.46484375 C-59.77983154 33.59641846 -59.77983154 33.59641846 -60.53955078 32.71044922 C-62.7173989 30.1597966 -64.86354017 27.58550229 -67 25 C-67.70125 24.154375 -68.4025 23.30875 -69.125 22.4375 C-70.96212867 20.04923272 -72.50629183 17.6139893 -74 15 C-68.65149616 14.02260844 -63.2435745 13.17714723 -58 15 C-53.33320833 18.74792876 -50.36862911 24.04296298 -47.27978516 29.08740234 C-45.47933752 31.77811329 -43.38500764 33.82126329 -41 36 C-40.31035156 35.17757812 -39.62070313 34.35515625 -38.91015625 33.5078125 C-36.43948329 30.56777803 -33.95401644 27.64063378 -31.46191406 24.71875 C-30.17336401 23.20382142 -28.89450803 21.68065877 -27.6171875 20.15625 C-19.77842833 11.05317484 -10.58418532 5.49331291 0 0 Z " fill="#99F0F2" transform="translate(144,41)"/>
<path d="M0 0 C2.5493597 3.82403954 4.75670991 7.80342015 7 11.8125 C7.45117188 12.60720703 7.90234375 13.40191406 8.3671875 14.22070312 C12.41356942 21.45750157 14.91194532 27.61598661 14 36 C11.83617631 43.25517355 7.25122109 48.83251927 1 53 C-4.87765998 55.04847831 -11.92298852 54.83255713 -18 54 C-21.37342317 52.05939601 -24.51721732 50.03451217 -27 47 C-27 46.34 -27 45.68 -27 45 C-26.34 45 -25.68 45 -25 45 C-24.67 44.01 -24.34 43.02 -24 42 C-23.01 42 -22.02 42 -21 42 C-21.33 40.02 -21.66 38.04 -22 36 C-21.01 35.505 -21.01 35.505 -20 35 C-19.4225 36.11375 -18.845 37.2275 -18.25 38.375 C-17.02134625 40.48674863 -16.14713693 41.87913752 -14.25 43.4375 C-9.26435109 44.68391223 -5.52953184 44.89776869 -1.125 42.3125 C3.06964073 37.74774391 3.52943965 32.92048624 3.47265625 26.92578125 C2.77543499 22.60992401 0.72968481 19.60654387 -1.78515625 16.09375 C-2.18605469 15.4028125 -2.58695313 14.711875 -3 14 C-2.67 13.01 -2.34 12.02 -2 11 C-0.68 11.33 0.64 11.66 2 12 C0.80100302 8.9168649 -0.47700477 5.93720508 -2 3 C-1.34 2.01 -0.68 1.02 0 0 Z " fill="#08AFC8" transform="translate(123,85)"/>
<path d="M0 0 C-1.13662268 4.72135573 -1.13662268 4.72135573 -3 7 C-5.7092031 7.84047885 -8.32352304 8.14175516 -11.13671875 8.48828125 C-16.51210109 9.44895668 -20.46735167 12.17071006 -23.9375 16.3125 C-24.91392049 18.78226947 -25.27412166 20.6406411 -25.5625 23.25 C-25.706875 24.4875 -25.85125 25.725 -26 27 C-26.99 27.495 -26.99 27.495 -28 28 C-28.66 27.67 -29.32 27.34 -30 27 C-30.29003906 27.73605469 -30.58007812 28.47210938 -30.87890625 29.23046875 C-34.82825183 38.98686603 -40.4230153 47.27517241 -46.47216797 55.82080078 C-48.02828885 58.04034935 -49.55001565 60.28049964 -51.06640625 62.52734375 C-64.16975596 81.79415184 -64.16975596 81.79415184 -71.75390625 83.6875 C-72.49511719 83.790625 -73.23632812 83.89375 -74 84 C-73.41992188 83.36384766 -73.41992188 83.36384766 -72.828125 82.71484375 C-64.93805609 73.82875129 -63.13169782 66.57012109 -62 55 C-60.35 55.99 -58.7 56.98 -57 58 C-57.33 60.64 -57.66 63.28 -58 66 C-54.4669725 62.81552229 -52.17221497 59.23902377 -49.875 55.125 C-49.52824219 54.52558594 -49.18148437 53.92617187 -48.82421875 53.30859375 C-46.7453459 49.63671489 -45.19925516 46.04284986 -44 42 C-44.66 42 -45.32 42 -46 42 C-44.33744865 36.71583997 -41.04536885 32.60125894 -37.8125 28.1875 C-37.26013672 27.41857422 -36.70777344 26.64964844 -36.13867188 25.85742188 C-16.36052193 -1.36337683 -16.36052193 -1.36337683 0 0 Z " fill="#A0F5F7" transform="translate(149,60)"/>
<path d="M0 0 C0.33 0 0.66 0 1 0 C0.72182151 6.6502046 -1.86198429 10.12638848 -6 15.1875 C-7.18555473 16.68176913 -8.37044682 18.17656424 -9.5546875 19.671875 C-10.13959961 20.40212891 -10.72451172 21.13238281 -11.32714844 21.88476562 C-14.3959003 25.76504382 -17.2814164 29.78035797 -20.1953125 33.77734375 C-22 36 -22 36 -25 38 C-24.34 38 -23.68 38 -23 38 C-23 40.97 -23 43.94 -23 47 C-20.03 42.71 -17.06 38.42 -14 34 C-13.01 34.33 -12.02 34.66 -11 35 C-12.5319007 43.85098183 -17.16858612 52.17773306 -23 59 C-23.66 59 -24.32 59 -25 59 C-25 56.36 -25 53.72 -25 51 C-26.485 50.505 -26.485 50.505 -28 50 C-29.4474903 47.35458669 -30.74092474 44.73508578 -32 42 C-37.31442535 29.71738512 -37.31442535 29.71738512 -47 21 C-47 20.34 -47 19.68 -47 19 C-43.62305242 19.29132118 -42.22028427 19.7921633 -39.71875 22.15234375 C-28 36.86267606 -28 36.86267606 -28 44 C-27.34 44 -26.68 44 -26 44 C-27.07602524 41.45501897 -28.16049792 38.91420689 -29.25 36.375 C-29.55035156 35.66214844 -29.85070312 34.94929688 -30.16015625 34.21484375 C-32.06335083 29.80105207 -34.27385704 25.97960664 -37 22 C-37.73117647 20.47856209 -38.42465276 18.9378638 -39.0625 17.375 C-40.39843572 14.24373565 -41.74467665 11.59362186 -44 9 C-43.67 8.34 -43.34 7.68 -43 7 C-39.0628293 11.34098307 -35.55071639 15.88992126 -32.1875 20.6875 C-31.79054932 21.24590576 -31.39359863 21.80431152 -30.98461914 22.37963867 C-29.04320342 25.18577145 -27.50609018 27.59011371 -27 31 C-22.85469595 29.45141261 -21.02564213 26.74633698 -18.4375 23.25 C-17.56201747 22.08141681 -16.68568302 20.91347148 -15.80859375 19.74609375 C-15.35339355 19.13620605 -14.89819336 18.52631836 -14.42919922 17.89794922 C-11.99708219 14.66814433 -9.49905001 11.49061712 -7 8.3125 C-6.53134521 7.71276367 -6.06269043 7.11302734 -5.57983398 6.49511719 C-3.79844109 4.22545193 -2.04225183 2.04225183 0 0 Z " fill="#A4F0F1" transform="translate(116,67)"/>
<path d="M0 0 C4.33867942 -1.10774794 7.68484116 -1.29503634 12 0 C16.41330262 3.86212499 19.51856796 9.01815282 22.65576172 13.92236328 C24.66438016 17.0268571 26.83176881 20.0054012 29 23 C27.1875 25.5 27.1875 25.5 25 28 C24.01 28 23.02 28 22 28 C20.2734375 26.19921875 20.2734375 26.19921875 18.375 23.6875 C17.67503906 22.77871094 16.97507812 21.86992188 16.25390625 20.93359375 C15.13822266 19.48146484 15.13822266 19.48146484 14 18 C12.44482782 16.07738281 10.8823987 14.16061127 9.3125 12.25 C8.19488281 10.88488281 8.19488281 10.88488281 7.0546875 9.4921875 C5.36310576 7.44042105 3.65598457 5.40417104 1.9375 3.375 C0 1 0 1 0 0 Z " fill="#08B4CA" transform="translate(74,56)"/>
<path d="M0 0 C-1.13662268 4.72135573 -1.13662268 4.72135573 -3 7 C-5.7092031 7.84047885 -8.32352304 8.14175516 -11.13671875 8.48828125 C-16.51210109 9.44895668 -20.46735167 12.17071006 -23.9375 16.3125 C-24.91392049 18.78226947 -25.27412166 20.6406411 -25.5625 23.25 C-25.706875 24.4875 -25.85125 25.725 -26 27 C-26.66 27.33 -27.32 27.66 -28 28 C-28.66 27.67 -29.32 27.34 -30 27 C-30.99 29.475 -30.99 29.475 -32 32 C-32.66 31.01 -33.32 30.02 -34 29 C-36.93200474 31.85276137 -39.64315404 34.65079784 -42 38 C-42.66 37.67 -43.32 37.34 -44 37 C-41.98616156 34.16163714 -39.96263601 31.33031057 -37.9375 28.5 C-37.37611328 27.70851563 -36.81472656 26.91703125 -36.23632812 26.1015625 C-32.43137976 20.79637735 -28.39518031 15.8262359 -24 11 C-23.40131104 10.34136963 -22.80262207 9.68273926 -22.18579102 9.00415039 C-15.66021613 1.95252525 -9.62547707 -0.80212309 0 0 Z " fill="#9BEDEE" transform="translate(149,60)"/>
<path d="M0 0 C0.78375 0.185625 1.5675 0.37125 2.375 0.5625 C4.97089775 1.25962266 4.97089775 1.25962266 7 0 C12.72626403 7.94113973 15.34574569 14.14624785 15 24 C8.375 28 8.375 28 5 28 C5.15597656 27.44570312 5.31195313 26.89140625 5.47265625 26.3203125 C7.05862586 19.34204623 6.82821651 13.64316155 3 7.5 C2.443125 6.7059375 1.88625 5.911875 1.3125 5.09375 C0 3 0 3 0 0 Z " fill="#0795B0" transform="translate(120,96)"/>
<path d="M0 0 C0 3 0 3 -2.01171875 5.0859375 C-3.33623047 6.21902344 -3.33623047 6.21902344 -4.6875 7.375 C-5.6053125 8.17808594 -6.523125 8.98117188 -7.46875 9.80859375 C-8.3040625 10.53175781 -9.139375 11.25492188 -10 12 C-15.73023889 17.19719341 -19.73475767 23.60213651 -24 30 C-24.66 30 -25.32 30 -26 30 C-26 28.35 -26 26.7 -26 25 C-26.66 25 -27.32 25 -28 25 C-22.96954176 11.4564586 -12.01431001 6.49032353 0 0 Z " fill="#A3F4F6" transform="translate(144,41)"/>
<path d="M0 0 C0.99 0.33 1.98 0.66 3 1 C2.39345004 4.11651555 1.40802726 6.12304178 -0.484375 8.66015625 C-1.25998779 9.71396484 -1.25998779 9.71396484 -2.05126953 10.7890625 C-2.61185059 11.53929688 -3.17243164 12.28953125 -3.75 13.0625 C-9.28732427 20.57599859 -14.60882458 28.20541516 -19.77246094 35.98071289 C-20.53864746 37.11947876 -20.53864746 37.11947876 -21.3203125 38.28125 C-21.76648926 38.95220703 -22.21266602 39.62316406 -22.67236328 40.31445312 C-24 42 -24 42 -27 44 C-27.478368 38.17260796 -26.61373969 35.69801828 -22.875 31.25 C-21.96229828 30.13228208 -21.05231197 29.0123433 -20.14453125 27.890625 C-19.64518066 27.28025391 -19.14583008 26.66988281 -18.63134766 26.04101562 C-15.49295534 22.11450264 -12.53842734 18.05011535 -9.5625 14 C-8.95970215 13.18692383 -8.3569043 12.37384766 -7.73583984 11.53613281 C-4.96904429 7.784149 -2.28963703 4.07046583 0 0 Z " fill="#212428" transform="translate(119,71)"/>
<path d="M0 0 C0.33 0 0.66 0 1 0 C0.72181936 6.65025593 -1.86202154 10.12630491 -6 15.1875 C-7.18423148 16.68048396 -8.36782144 18.17397699 -9.55078125 19.66796875 C-10.13553223 20.39806152 -10.7202832 21.1281543 -11.32275391 21.88037109 C-13.68544999 24.86624117 -15.93875692 27.9279544 -18.1875 31 C-21.76205788 35.88102894 -21.76205788 35.88102894 -24 37 C-24.828125 34.96484375 -24.828125 34.96484375 -25 32 C-23.59468155 29.25994624 -21.6785379 26.95249914 -19.75 24.5625 C-19.20875488 23.86817871 -18.66750977 23.17385742 -18.10986328 22.45849609 C-16.98187254 21.01515311 -15.84715448 19.57704449 -14.70605469 18.14404297 C-13.06186908 16.07775247 -11.43794227 13.99727343 -9.8203125 11.91015625 C-2.5313164 2.5313164 -2.5313164 2.5313164 0 0 Z " fill="#212328" transform="translate(116,67)"/>
<path d="M0 0 C1.21236328 0.01353516 1.21236328 0.01353516 2.44921875 0.02734375 C3.37154297 0.04474609 3.37154297 0.04474609 4.3125 0.0625 C3.17209864 4.79955179 3.17209864 4.79955179 1.3125 7.0625 C-2.29945871 8.3053245 -5.9069593 8.64117468 -9.6875 9.0625 C-10.6775 9.3925 -11.6675 9.7225 -12.6875 10.0625 C-13.6775 9.0725 -14.6675 8.0825 -15.6875 7.0625 C-14.42049277 6.0783875 -13.1487381 5.10038503 -11.875 4.125 C-11.16730469 3.57972656 -10.45960938 3.03445312 -9.73046875 2.47265625 C-6.47296294 0.22416753 -3.84752207 -0.05576119 0 0 Z " fill="#0DB2C9" transform="translate(144.6875,59.9375)"/>
<path d="M0 0 C0.66 0.99 1.32 1.98 2 3 C0.98478333 6.55989259 -0.73943777 9.27928884 -2.94140625 12.22265625 C-3.52132324 13.00342529 -4.10124023 13.78419434 -4.69873047 14.58862305 C-5.31377441 15.40500244 -5.92881836 16.22138184 -6.5625 17.0625 C-7.18785645 17.90143799 -7.81321289 18.74037598 -8.45751953 19.60473633 C-10.29977623 22.07379634 -12.14918211 24.53735416 -14 27 C-14.9756587 28.30438969 -15.95096171 29.60904556 -16.92578125 30.9140625 C-18.94443075 33.61398201 -20.96959318 36.30890525 -23 39 C-23.33 38.34 -23.66 37.68 -24 37 C-24.66 37 -25.32 37 -26 37 C-25.67 36.01 -25.34 35.02 -25 34 C-24.34 34 -23.68 34 -23 34 C-21.63933634 32.38916948 -20.36386746 30.70627899 -19.125 29 C-18.3249169 27.90313624 -17.52409489 26.8068112 -16.72265625 25.7109375 C-16.28969238 25.11635742 -15.85672852 24.52177734 -15.41064453 23.90917969 C-13.90298733 21.86870213 -12.36027312 19.85874235 -10.80859375 17.8515625 C-10.27024902 17.1503125 -9.7319043 16.4490625 -9.17724609 15.7265625 C-8.11941297 14.34981205 -7.05612013 12.97723547 -5.98681641 11.609375 C-3.12938697 7.86093941 -1.20016291 4.64254635 0 0 Z " fill="#99D7DA" transform="translate(117,68)"/>
<path d="M0 0 C1.82421875 0.99609375 1.82421875 0.99609375 3.6875 2.4375 C4.31011719 2.91058594 4.93273437 3.38367188 5.57421875 3.87109375 C6.27998047 4.42990234 6.27998047 4.42990234 7 5 C5.79618552 7.49361571 4.54571278 9.68143083 3 12 C-0.91841827 10.69386058 -3.32640809 9.16870152 -6 6 C-6 5.34 -6 4.68 -6 4 C-5.34 4 -4.68 4 -4 4 C-3.67 3.01 -3.34 2.02 -3 1 C-2.01 0.67 -1.02 0.34 0 0 Z " fill="#057591" transform="translate(102,126)"/>
<path d="M0 0 C1 2 1 2 0.50390625 3.9609375 C-2.33405749 11.23837148 -6.13437812 17.87058023 -11 24 C-11.66 24 -12.32 24 -13 24 C-13.4449513 18.86420619 -12.46982588 16.58356752 -9.3125 12.5625 C-8.22388672 11.14710937 -8.22388672 11.14710937 -7.11328125 9.703125 C-6.41589844 8.81109375 -5.71851562 7.9190625 -5 7 C-3.99134691 5.61040667 -2.98964905 4.21569117 -2 2.8125 C-1.34 1.884375 -0.68 0.95625 0 0 Z " fill="#293135" transform="translate(104,102)"/>
<path d="M0 0 C3.37694758 0.29132118 4.77971573 0.7921633 7.28125 3.15234375 C12.83695257 10.12631546 18.06263557 17.1405939 20 26 C19.34 26.33 18.68 26.66 18 27 C17.34 24.69 16.68 22.38 16 20 C15.34 20 14.68 20 14 20 C12.703125 18.05859375 12.703125 18.05859375 11.25 15.4375 C6.82418869 7.58317743 6.82418869 7.58317743 0 2 C0 1.34 0 0.68 0 0 Z " fill="#2CCBDB" transform="translate(69,86)"/>
<path d="M0 0 C0 3.10551666 -0.5393715 4.35261084 -2 7 C-1.34 7 -0.68 7 0 7 C-1 9 -1 9 -3.0625 11 C-6.51992996 14.35603906 -9.37789697 18.18958538 -12.328125 21.98828125 C-13.15570313 22.98408203 -13.15570313 22.98408203 -14 24 C-14.33 24 -14.66 24 -15 24 C-15.53074484 19.81090679 -15.19031068 18.27332551 -12.734375 14.74609375 C-11.75437933 13.63006094 -10.75900327 12.52737758 -9.75 11.4375 C-8.76515131 10.33245324 -7.78076901 9.22699062 -6.796875 8.12109375 C-6.0862793 7.33581299 -6.0862793 7.33581299 -5.36132812 6.53466797 C-3.48854978 4.4234261 -1.73824694 2.22247288 0 0 Z " fill="#96E2E4" transform="translate(118,59)"/>
<path d="M0 0 C0.78375 0.185625 1.5675 0.37125 2.375 0.5625 C4.97089775 1.25962266 4.97089775 1.25962266 7 0 C7.86658615 1.26239712 8.71792059 2.53527501 9.5625 3.8125 C10.27599609 4.87404297 10.27599609 4.87404297 11.00390625 5.95703125 C12 8 12 8 11 11 C10.67 10.67 10.34 10.34 10 10 C8.32457024 10.28604898 6.65614657 10.61781233 5 11 C4.15841464 9.73461631 3.32700252 8.46246221 2.5 7.1875 C1.80390625 6.12595703 1.80390625 6.12595703 1.09375 5.04296875 C0 3 0 3 0 0 Z " fill="#075069" transform="translate(120,96)"/>
<path d="M0 0 C1.32 0.33 2.64 0.66 4 1 C3.67 2.32 3.34 3.64 3 5 C2.67 4.34 2.34 3.68 2 3 C2 4.98 2 6.96 2 9 C1.01 9.33 0.02 9.66 -1 10 C-2.02104551 10.97850195 -3.0206121 11.97980427 -4 13 C-4.99 13.66 -5.98 14.32 -7 15 C-7.99 14.67 -8.98 14.34 -10 14 C-9.16855469 12.86111328 -9.16855469 12.86111328 -8.3203125 11.69921875 C-7.59585938 10.70535156 -6.87140625 9.71148437 -6.125 8.6875 C-5.40570313 7.70136719 -4.68640625 6.71523437 -3.9453125 5.69921875 C-2.5944065 3.82476885 -1.28164671 1.92247007 0 0 Z " fill="#1E2429" transform="translate(100,118)"/>
<path d="M0 0 C0.33 2.64 0.66 5.28 1 8 C-1.31 9.32 -3.62 10.64 -6 12 C-6.33 8.37 -6.66 4.74 -7 1 C-3 0 -3 0 0 0 Z " fill="#047C98" transform="translate(133,105)"/>
<path d="M0 0 C0.33 0.66 0.66 1.32 1 2 C1.99 2.33 2.98 2.66 4 3 C2.52934075 6.58522876 0.59934458 8.44386096 -2.4375 10.8125 C-3.21996094 11.43769531 -4.00242187 12.06289062 -4.80859375 12.70703125 C-5.53175781 13.13371094 -6.25492187 13.56039062 -7 14 C-7.99 13.67 -8.98 13.34 -10 13 C-9.44570312 12.39671875 -8.89140625 11.7934375 -8.3203125 11.171875 C-7.59585938 10.37265625 -6.87140625 9.5734375 -6.125 8.75 C-5.04605469 7.56664062 -5.04605469 7.56664062 -3.9453125 6.359375 C-2.23064517 4.27973832 -1.07019127 2.45580733 0 0 Z " fill="#9BE6E8" transform="translate(85,130)"/>
<path d="M0 0 C1.32 0.66 2.64 1.32 4 2 C3.236875 2.556875 2.47375 3.11375 1.6875 3.6875 C-2.35375118 7.16485567 -4.00861046 9.99274335 -4.5625 15.25 C-4.706875 16.4875 -4.85125 17.725 -5 19 C-5.66 19.33 -6.32 19.66 -7 20 C-7.55826767 8.19367261 -7.55826767 8.19367261 -4 4 C-2.70420353 2.63015802 -1.38007251 1.2848951 0 0 Z " fill="#47E4EE" transform="translate(128,68)"/>
<path d="M0 0 C2.14372987 3.2155948 4.07786975 6.52520055 6 9.875 C6.35578125 10.48730469 6.7115625 11.09960938 7.078125 11.73046875 C12 20.30701959 12 20.30701959 12 25 C11.34 25 10.68 25 10 25 C9.79246094 24.38253906 9.58492187 23.76507813 9.37109375 23.12890625 C7.55890178 18.14727393 5.64003099 14.30327138 2.1875 10.25 C-1.0074192 6.42289466 -1.0074192 6.42289466 -0.9375 2.4375 C-0.628125 1.633125 -0.31875 0.82875 0 0 Z " fill="#22353E" transform="translate(78,86)"/>
<path d="M0 0 C0.66 0 1.32 0 2 0 C3.32421875 1.64453125 3.32421875 1.64453125 4.6875 3.8125 C5.14511719 4.52019531 5.60273437 5.22789063 6.07421875 5.95703125 C7 8 7 8 6 11 C5.38125 10.814375 4.7625 10.62875 4.125 10.4375 C1.95839822 9.76313824 1.95839822 9.76313824 0 11 C-1.625 9.3125 -1.625 9.3125 -3 7 C-2.25 4.375 -2.25 4.375 -1 2 C-0.67 1.34 -0.34 0.68 0 0 Z " fill="#0D3446" transform="translate(119,87)"/>
<path d="M0 0 C0.66 0.33 1.32 0.66 2 1 C-2.62 7.6 -7.24 14.2 -12 21 C-12.99 20.34 -13.98 19.68 -15 19 C-14.42378906 18.48824219 -13.84757812 17.97648437 -13.25390625 17.44921875 C-10.07413942 13.99390887 -8.08629598 9.9897419 -5.91210938 5.86914062 C-3.31035526 1.10345175 -3.31035526 1.10345175 0 0 Z " fill="#9ADBDD" transform="translate(106,107)"/>
<path d="M0 0 C4.46405416 3.18516297 7.25544995 6.79350037 10.3125 11.25 C10.76689453 11.8996875 11.22128906 12.549375 11.68945312 13.21875 C12.79954139 14.80792899 13.90069651 16.40334173 15 18 C14.34 18.99 13.68 19.98 13 21 C6.78186969 14.78186969 6.78186969 14.78186969 5.0625 10.625 C3.67433694 7.38595286 2.20979144 4.7622393 0 2 C0 1.34 0 0.68 0 0 Z " fill="#9FEAEC" transform="translate(72,74)"/>
<path d="M0 0 C0.66 0.33 1.32 0.66 2 1 C1.67 1.33 1.34 1.66 1 2 C0.76712992 3.68183948 0.58735834 5.3712416 0.4375 7.0625 C0.31181641 8.44115234 0.31181641 8.44115234 0.18359375 9.84765625 C0.12300781 10.55792969 0.06242187 11.26820312 0 12 C-2.31 11.34 -4.62 10.68 -7 10 C-6.02223933 8.51990357 -5.0427506 7.04094856 -4.0625 5.5625 C-3.51722656 4.73878906 -2.97195312 3.91507812 -2.41015625 3.06640625 C-1 1 -1 1 0 0 Z " fill="#8BEDEF" transform="translate(121,75)"/>
<path d="M0 0 C0.99 0.66 1.98 1.32 3 2 C3 2.99 3 3.98 3 5 C-0.465 6.485 -0.465 6.485 -4 8 C-4.66 6.68 -5.32 5.36 -6 4 C-5.34 4 -4.68 4 -4 4 C-3.67 3.01 -3.34 2.02 -3 1 C-2.01 0.67 -1.02 0.34 0 0 Z " fill="#064F69" transform="translate(102,126)"/>
<path d="M0 0 C4.37653129 0.47620289 6.06538005 1.66899889 8.8125 5.0625 C9.41707031 5.79597656 10.02164063 6.52945313 10.64453125 7.28515625 C11.09183594 7.85105469 11.53914063 8.41695312 12 9 C11.34 10.32 10.68 11.64 10 13 C9.52949219 12.37351562 9.05898437 11.74703125 8.57421875 11.1015625 C7.95160156 10.28429687 7.32898438 9.46703125 6.6875 8.625 C6.07261719 7.81289062 5.45773438 7.00078125 4.82421875 6.1640625 C3.00519317 3.80220611 3.00519317 3.80220611 0 2 C0 1.34 0 0.68 0 0 Z " fill="#1190A9" transform="translate(69,86)"/>
<path d="M0 0 C0.66 0.66 1.32 1.32 2 2 C0.59940576 4.17870215 -0.81860103 6.34168368 -2.25 8.5 C-2.64574219 9.12003906 -3.04148437 9.74007812 -3.44921875 10.37890625 C-4.640625 12.15625 -4.640625 12.15625 -7 15 C-8.32 15 -9.64 15 -11 15 C-11 13.02 -11 11.04 -11 9 C-10.34 10.32 -9.68 11.64 -9 13 C-6.03 8.71 -3.06 4.42 0 0 Z " fill="#90CFD2" transform="translate(102,101)"/>
<path d="M0 0 C1.64609775 2.46914662 3.19638069 4.9364711 4.6875 7.5 C5.14511719 8.2734375 5.60273438 9.046875 6.07421875 9.84375 C7 12 7 12 6 15 C3.36 11.37 0.72 7.74 -2 4 C-1.34 2.68 -0.68 1.36 0 0 Z " fill="#1BACC2" transform="translate(123,85)"/>
<path d="M0 0 C1.65 0.99 3.3 1.98 5 3 C4.67 5.97 4.34 8.94 4 12 C3.34 10.68 2.68 9.36 2 8 C1.67 9.65 1.34 11.3 1 13 C0.67 13 0.34 13 0 13 C0 8.71 0 4.42 0 0 Z " fill="#A5FDFD" transform="translate(87,115)"/>
<path d="M0 0 C1.50559539 1.96382007 2.89131683 3.78263366 4 6 C4.66 5.67 5.32 5.34 6 5 C6.103125 5.639375 6.20625 6.27875 6.3125 6.9375 C6.539375 7.618125 6.76625 8.29875 7 9 C7.99 9.33 8.98 9.66 10 10 C9.67 10.99 9.34 11.98 9 13 C6.14059964 12.3645777 4.44177401 11.65348679 2.77734375 9.19140625 C1.10621088 5.92700692 0 3.71683985 0 0 Z " fill="#8AEBED" transform="translate(84,106)"/>
<path d="M0 0 C0.33 1.32 0.66 2.64 1 4 C-2.75 7 -2.75 7 -5 7 C-5.33 7.66 -5.66 8.32 -6 9 C-6.33 7.68 -6.66 6.36 -7 5 C-2.25 1.125 -2.25 1.125 0 0 Z " fill="#058AA7" transform="translate(134,112)"/>
<path d="M0 0 C0.61875 0.86625 0.61875 0.86625 1.25 1.75 C3.02282212 4.02934272 4.92683349 5.99370983 7 8 C7.66 8.66 8.32 9.32 9 10 C7.20703125 10.6640625 7.20703125 10.6640625 5 11 C2.46294635 9.48346905 0.62860381 7.45699398 -1 5 C-0.875 2.125 -0.875 2.125 0 0 Z " fill="#11ABC1" transform="translate(102,120)"/>
<path d="M0 0 C2.31 0 4.62 0 7 0 C7.33 1.65 7.66 3.3 8 5 C7.34 4.67 6.68 4.34 6 4 C4.32345271 4.27942455 2.65391846 4.60828247 1 5 C0.67 3.35 0.34 1.7 0 0 Z " fill="#055E78" transform="translate(124,102)"/>
<path d="M0 0 C0.99 0 1.98 0 3 0 C1.6062718 4.43458973 -0.60582235 6.87378374 -4 10 C-4.66 9.34 -5.32 8.68 -6 8 C-5.07456291 6.65826597 -4.13422595 5.32679841 -3.1875 4 C-2.66542969 3.2575 -2.14335938 2.515 -1.60546875 1.75 C-0.81076172 0.88375 -0.81076172 0.88375 0 0 Z " fill="#96E1E3" transform="translate(95,89)"/>
<path d="M0 0 C0.66 0 1.32 0 2 0 C2 1.32 2 2.64 2 4 C2.66 4 3.32 4 4 4 C3.34 7.3 2.68 10.6 2 14 C1.67 14 1.34 14 1 14 C0.67 9.38 0.34 4.76 0 0 Z " fill="#A5F9FA" transform="translate(89,101)"/>
<path d="M0 0 C0 3 0 3 -2.6875 5.75 C-5.13973374 7.70130238 -5.61524153 8.02509294 -8.875 7.8125 C-9.926875 7.4103125 -9.926875 7.4103125 -11 7 C-7.54319097 4.23455278 -3.85658398 2.15078722 0 0 Z " fill="#99E2E4" transform="translate(144,41)"/>
<path d="M0 0 C4.74107498 3.25102284 7.20870403 7.10632366 10 12 C9.01 12.495 9.01 12.495 8 13 C5.48379469 11.74189735 5.19164364 10.69646845 4 8.1875 C3.67 7.50042969 3.34 6.81335938 3 6.10546875 C2.67 5.41066406 2.34 4.71585937 2 4 C1.33610101 2.66528641 0.6702549 1.33153317 0 0 Z " fill="#95D5D8" transform="translate(72,74)"/>
<path d="M0 0 C0.66 0 1.32 0 2 0 C3.6875 2.375 3.6875 2.375 5 5 C4.67 5.66 4.34 6.32 4 7 C1.03 6.505 1.03 6.505 -2 6 C-1.34 4.02 -0.68 2.04 0 0 Z " fill="#182A35" transform="translate(119,87)"/>
<path d="M0 0 C3.32532111 2.69192661 4.52454943 6.06546515 6 10 C6 10.99 6 11.98 6 13 C5.34 13 4.68 13 4 13 C3.54625 11.7625 3.0925 10.525 2.625 9.25 C1.5615993 6.40754505 0.44807517 3.67336954 -1 1 C-0.67 0.67 -0.34 0.34 0 0 Z " fill="#1494B9" transform="translate(130,99)"/>
<path d="M0 0 C2.375 0.25 2.375 0.25 5 1 C6.3125 3.0625 6.3125 3.0625 7 5 C6.34 5.66 5.68 6.32 5 7 C0 1.125 0 1.125 0 0 Z " fill="#9BF1F3" transform="translate(70,56)"/>
<path d="M0 0 C0.99 0 1.98 0 3 0 C2.67 1.98 2.34 3.96 2 6 C1.01 6.33 0.02 6.66 -1 7 C-1.04254356 5.00045254 -1.04080783 2.99958364 -1 1 C-0.67 0.67 -0.34 0.34 0 0 Z " fill="#313C40" transform="translate(92,119)"/>
<path d="M0 0 C2 3 2 3 1.8125 5 C0.90059285 7.24469451 -0.18533754 8.42203265 -2 10 C-1.67 8.35 -1.34 6.7 -1 5 C-1.66 4.67 -2.32 4.34 -3 4 C-2.01 2.68 -1.02 1.36 0 0 Z " fill="#2A3035" transform="translate(100,97)"/>
<path d="M0 0 C2 3 2 3 2 5 C1.01 5.33 0.02 5.66 -1 6 C-2.66710346 7.49985609 -2.66710346 7.49985609 -4 9 C-4.33 8.34 -4.66 7.68 -5 7 C-4.67 6.34 -4.34 5.68 -4 5 C-3.34 5 -2.68 5 -2 5 C-1.34 3.35 -0.68 1.7 0 0 Z " fill="#0B3649" transform="translate(100,122)"/>
<path d="M0 0 C0.66 0.66 1.32 1.32 2 2 C1.67 2.99 1.34 3.98 1 5 C0.34 4.67 -0.32 4.34 -1 4 C-1.33 4.66 -1.66 5.32 -2 6 C-2 5.34 -2 4.68 -2 4 C-2.66 4 -3.32 4 -4 4 C-4 3.01 -4 2.02 -4 1 C-2.125 0.375 -2.125 0.375 0 0 Z " fill="#046D89" transform="translate(130,105)"/>
<path d="M0 0 C0.99 0.33 1.98 0.66 3 1 C2.34 2.32 1.68 3.64 1 5 C0.34 5 -0.32 5 -1 5 C-1.33 5.66 -1.66 6.32 -2 7 C-2.33 5.35 -2.66 3.7 -3 2 C-2.34 2 -1.68 2 -1 2 C-0.67 1.34 -0.34 0.68 0 0 Z " fill="#99F1F2" transform="translate(107,102)"/>
<path d="M0 0 C0.66 0 1.32 0 2 0 C1.50168276 3.68754757 0.89932357 5.60490662 -2 8 C-2.125 5.125 -2.125 5.125 -2 2 C-1.34 1.34 -0.68 0.68 0 0 Z " fill="#98E8EA" transform="translate(105,75)"/>
<path d="M0 0 C0.66 0.66 1.32 1.32 2 2 C1.63318342 4.93453261 1.13562754 5.86437246 -1 8 C-1 7.01 -1 6.02 -1 5 C-1.66 4.67 -2.32 4.34 -3 4 C-2.01 2.68 -1.02 1.36 0 0 Z " fill="#202327" transform="translate(96,114)"/>
<path d="M0 0 C0.66 0.33 1.32 0.66 2 1 C0.7260411 3.03833424 -0.61061923 5.03852126 -2 7 C-2.66 7 -3.32 7 -4 7 C-3.67 5.02 -3.34 3.04 -3 1 C-2.01 0.67 -1.02 0.34 0 0 Z " fill="#92E3E5" transform="translate(106,107)"/>
<path d="M0 0 C0.66 0.66 1.32 1.32 2 2 C0.35 4.31 -1.3 6.62 -3 9 C-3.33 7.68 -3.66 6.36 -4 5 C-2.0625 2.25 -2.0625 2.25 0 0 Z " fill="#272A2E" transform="translate(107,81)"/>
<path d="M0 0 C1.32 0.33 2.64 0.66 4 1 C3.67 2.32 3.34 3.64 3 5 C2.67 4.34 2.34 3.68 2 3 C1.34 3.66 0.68 4.32 0 5 C-0.99 4.67 -1.98 4.34 -3 4 C-2.01 2.68 -1.02 1.36 0 0 Z " fill="#253137" transform="translate(100,118)"/>
<path d="M0 0 C0.78375 0.185625 1.5675 0.37125 2.375 0.5625 C4.97089775 1.25962266 4.97089775 1.25962266 7 0 C7.33 1.32 7.66 2.64 8 4 C5.69 4 3.38 4 1 4 C0.67 2.68 0.34 1.36 0 0 Z " fill="#0A4259" transform="translate(120,96)"/>
<path d="M0 0 C1.65 1.65 3.3 3.3 5 5 C4.01 6.485 4.01 6.485 3 8 C1.02 4.535 1.02 4.535 -1 1 C-0.67 0.67 -0.34 0.34 0 0 Z " fill="#23A7BE" transform="translate(76,91)"/>
<path d="M0 0 C1.98 0 3.96 0 6 0 C4.02 2.97 4.02 2.97 2 6 C0 3 0 3 0 0 Z " fill="#282B2F" transform="translate(108,76)"/>
<path d="M0 0 C1.2065625 0.0309375 1.2065625 0.0309375 2.4375 0.0625 C2.4375 1.0525 2.4375 2.0425 2.4375 3.0625 C1.4475 3.3925 0.4575 3.7225 -0.5625 4.0625 C-1.5525 3.0725 -2.5425 2.0825 -3.5625 1.0625 C-2.5625 0.0625 -2.5625 0.0625 0 0 Z " fill="#11BBD0" transform="translate(132.5625,65.9375)"/>
<path d="M0 0 C0 3.51716303 -0.82445585 4.37121748 -3 7 C-3.99 6.67 -4.98 6.34 -6 6 C-4 4 -2 2 0 0 Z " fill="#098DA9" transform="translate(108,131)"/>
<path d="M0 0 C0.66 0 1.32 0 2 0 C0.75023244 3.65316671 0.32901247 4.78065836 -3 7 C-3 3.47967572 -2.29648649 2.5614657 0 0 Z " fill="#A3E0E4" transform="translate(107,85)"/>
<path d="M0 0 C0.66 0.99 1.32 1.98 2 3 C1.1025444 6.06630664 0.26961192 7.73038808 -2 10 C-3.39195915 5.82412255 -1.82323219 3.86525224 0 0 Z " fill="#90CBCE" transform="translate(117,68)"/>
</svg>
